<?xml version="1.0" encoding="UTF-8" standalone="no"?>
<!DOCTYPE svg PUBLIC "-//W3C//DTD SVG 1.1//EN" "http://www.w3.org/Graphics/SVG/1.1/DTD/svg11.dtd">
<svg width="100%" height="100%" viewBox="0 0 606 133" version="1.1" xmlns="http://www.w3.org/2000/svg" xmlns:xlink="http://www.w3.org/1999/xlink" xml:space="preserve" xmlns:serif="http://www.serif.com/" style="fill-rule:evenodd;clip-rule:evenodd;">
    <g transform="matrix(1,0,0,1,-91.6998,-45.6545)">
        <g transform="matrix(0.564144,0,0,0.564144,88.9138,43.6304)">
            <path fill="#6c6eec66" stroke="#6c6eec"  d="M7,185L8,237L95,237L92,186.692C79.748,182.121 70.022,173.219 62.824,159.985C55.626,146.751 51.944,128.274 51.779,104.555C52.051,78.843 58.1,58.095 69.919,42.316C81.736,26.535 97.677,18.421 117.741,17.971C126.472,17.751 135.82,20.143 145.787,25.16C155.751,30.178 164.318,39.165 171.484,52.123C178.651,65.08 182.402,83.357 182.739,106.95C182.739,129.011 179.628,146.664 173.247,159.911C166.865,173.159 156.944,182.085 143.484,186.691L139.301,236.999L226.82,236.999L228.751,184.637L221.029,184.637C221.029,191.054 219.366,196.701 215.881,201.578C212.395,206.455 205.853,209.021 196.254,209.278L153.137,209.278L154.746,194.562C175.037,188.224 190.844,177.115 202.167,161.236C213.488,145.358 219.24,125.78 219.421,102.501C218.878,72.753 209.383,49.265 190.927,32.035C172.47,14.807 148.29,6.011 118.388,5.649C86.547,6.387 61.465,16.063 43.142,34.661C24.818,53.26 15.472,76.33 15.102,103.869C15.413,122.551 19.129,138.288 26.231,151.076C33.335,163.866 41.93,173.849 52.019,181.027C62.108,188.205 71.789,192.716 81.063,194.561L81.387,209.277L39.236,209.277C30.481,209.277 24.1,207.16 20.091,202.988C16.082,198.818 13.883,192.7 13.495,184.636L7,185Z"/>
        </g>
        <path fill="#6c6eec2c" stroke="#6c6eec" d="M235,80C235,69.028 244.028,60 255,60L365,60L365,140L345,160L315,160L315,120L295,120L295,140L291,140L291,160L290,160L290,140L285,140L285,120L265,120L265,160L235,160L235,80Z"/>
        <path fill="#6c6eec2c" stroke="#6c6eec" d="M375,80C375,69.028 384.028,60 395,60L475,60L475,120L435,120M435,90L455,90L455,80L435,80L435,90M435,120L435,140L475,140L455,160L375,160L375,80"/>
        <path fill="#6c6eec2c" stroke="#6c6eec" d="M485,80C485,69.028 494.028,60 505,60L585,60L585,80L535,80L535,120L555,120L555,110L545,110L545,100L585,100L585,140L565,160L485,160L485,80Z"/>
        <path fill="#6c6eec2c" stroke="#6c6eec" d="M595,80C595,69.028 604.028,60 615,60L695,60L695,140L675,160L665,160L665,120L645,120L645,160L595,160L595,80M645,90L645,80L665,80L665,90L645,90"/>
    </g>
</svg>
